<svg xmlns="http://www.w3.org/2000/svg" width="52.918" height="77.051" viewBox="0 0 52.918 77.051"><g transform="translate(-210.626 -449.68)"><path d="M236.7,553.936A26.313,26.313,0,0,1,212.528,537.9a24.994,24.994,0,0,1,5.272-27.1c6.752-6.722,14.891-9.36,24.276-7.487a25.593,25.593,0,0,1,16.944,11.735,23.3,23.3,0,0,1,3.633,10.779,24.712,24.712,0,0,1-7.269,20.279,25.6,25.6,0,0,1-16.6,7.724C238.094,553.888,237.395,553.9,236.7,553.936Zm1.19-2.169a4.942,4.942,0,0,0-.482-.344,13.907,13.907,0,0,1-4.054-3.085c-2.607-2.912-3.906-6.188-2.748-10.127.049-.167.158-.364-.017-.5-.244-.2-.5-.05-.727.054a4.578,4.578,0,0,1-4.637-.509,6.645,6.645,0,0,1-2.249-8.449c.1-.216.375-.457.132-.7-.2-.192-.5-.1-.742-.025a4.664,4.664,0,0,0-3.347,3.543c-.623,2.668.3,5,1.731,7.177a14.179,14.179,0,0,0,3.073,3.265c.117.093.38.2.174.415-.141.147-.291-.02-.4-.109-.619-.509-1.255-1-1.836-1.551a11.068,11.068,0,0,1-3.691-8.641c.077-3.08,2.534-6.415,6.187-5.808a.72.72,0,0,0,.686-.264,14.577,14.577,0,0,1,2.85-2.261,1.353,1.353,0,0,0,.5-.577,15.511,15.511,0,0,1,1.791-2.809.649.649,0,0,0-.1-1.045,9,9,0,0,0-4.753-2.3,11.1,11.1,0,0,0-11.014,5.757,13.021,13.021,0,0,0-1.3,8.5,22.714,22.714,0,0,0,8.039,14.69,24.08,24.08,0,0,0,13.119,5.673A13.671,13.671,0,0,0,237.887,551.768Zm-22.357-34.233a24.219,24.219,0,0,1,3.057-1.586c4.23-1.643,9.12-1.463,12.459,2.215.136.15.268.359.507.273s.184-.35.206-.542a4.518,4.518,0,0,1,1.462-2.744c1.926-1.913,7.564-2.262,9.926,1.017.143.2.264.521.559.466.337-.063.335-.426.387-.693a3.315,3.315,0,0,0,.048-.772A5.154,5.154,0,0,0,241,510.54c-3.042-1.469-6.171-1.254-9.3-.242-.3.1-.582.216-.879.3-.143.043-.324.081-.387-.124-.047-.151.075-.238.189-.3a6.239,6.239,0,0,1,.635-.288,15.064,15.064,0,0,1,4.992-1.038,10.1,10.1,0,0,1,7.768,2.9c1.552,1.585,2.383,3.562,1.327,5.649a4.263,4.263,0,0,0-.294,3.61,8.367,8.367,0,0,1,.215,1.455,1.9,1.9,0,0,0,.15.673,23.548,23.548,0,0,1,1.76,3.71.548.548,0,0,0,.8.356,8.809,8.809,0,0,0,6.413-6.837,11.473,11.473,0,0,0-5.206-12.052,22.783,22.783,0,0,0-16.533-3.174,24.223,24.223,0,0,0-16.067,10.342A6.277,6.277,0,0,0,215.531,517.535Zm41.4-1.52c0,.456,0,.908,0,1.36a12.752,12.752,0,0,1-2.187,7.326,9.783,9.783,0,0,1-6.2,4.074c-.195.042-.477.01-.532.243-.068.286.23.373.417.488a3.733,3.733,0,0,1,1.29,1.315,6.081,6.081,0,0,1-1.313,7.238,7.279,7.279,0,0,1-4.539,1.951c-.225.015-.51-.015-.587.255-.065.225.164.368.313.5a4.241,4.241,0,0,0,3,1.243,7.514,7.514,0,0,0,5.341-2.481,12.761,12.761,0,0,0,3.286-6.821c.04-.242-.008-.686.406-.59.327.076.151.436.111.675a14.036,14.036,0,0,1-1.543,4.531,10.722,10.722,0,0,1-6.228,5.5c-2.313.72-4.531.435-5.957-1.537a5.545,5.545,0,0,0-3.291-2.216,7.181,7.181,0,0,1-.722-.282,2.836,2.836,0,0,0-1.181-.332,13.192,13.192,0,0,1-3.7-.346c-.771-.191-1,.1-1.1.8a8.805,8.805,0,0,0,4.288,9.22,12.238,12.238,0,0,0,13.826-.326,23.129,23.129,0,0,0,10.4-16.639,22.42,22.42,0,0,0-3.094-14.737C257.335,516.269,257.3,516.026,256.931,516.015ZM244.32,524.1a20.356,20.356,0,0,0-.567-4.755,6.386,6.386,0,0,0-7.917-4.638,3.8,3.8,0,0,0-3.015,2.4,3.588,3.588,0,0,0,.75,4.027c1.129,1.1,2.477.8,3.781.348.829-.289.865-.286,1.063.549a7.6,7.6,0,0,1-.762,4.884,1.269,1.269,0,0,0-.16,1.034,6.727,6.727,0,0,0,3.659,4.1c.92.376,1,.331,1.285-.589a3.4,3.4,0,0,1,.286-.718A14.751,14.751,0,0,0,244.32,524.1Zm-8.567,5.042a6.532,6.532,0,0,0-4.425,1.345c-.422.324-.492.608-.044.976a3.5,3.5,0,0,1,.94,1.225,6.117,6.117,0,0,0,1.64,2.13,19.317,19.317,0,0,0,5.306,3.319,9.316,9.316,0,0,0,5.672.773c3.092-.732,5.2-3.577,4.734-6.406a3.71,3.71,0,0,0-3.913-3.052c-1.623.065-2.5,1.116-2.609,3.217-.035.659-.367.7-.87.6a6.749,6.749,0,0,1-4.4-3.065C237.219,529.39,236.608,528.925,235.753,529.14Zm-12.564,2.7a5.849,5.849,0,0,0,1.082,3.329c1.519,2.231,3.965,2.857,6.081,1.572a2.871,2.871,0,0,0-.073-5.117c-.848-.487-.86-.546-.18-1.275a6.7,6.7,0,0,1,4.487-2.051,2.541,2.541,0,0,0,2.166-1.483,6.25,6.25,0,0,0,1.024-3.749c-.058-.541-.2-.9-.881-.634a3.825,3.825,0,0,1-2,.135,4.094,4.094,0,0,0-1.843.113,18.336,18.336,0,0,0-7.858,4.353A6.325,6.325,0,0,0,223.189,531.844Z" transform="translate(0 -44.792)"/><path d="M346.3,907.815c-.242-.27-.577-.324-.764-.6a1.245,1.245,0,0,1,.956-1.964,16.846,16.846,0,0,1,5.077-.425c1.593.162,3.19.286,4.785.434.295.027.705-.038.747.375.046.459-.394.4-.673.446-1.147.189-2.3.366-3.447.526-.564.078-.988.326-.883.931s.618.665,1.157.572c.967-.166,1.937-.325,2.909-.461.3-.042.772-.254.852.2.075.429-.4.444-.726.5q-1.491.242-2.981.494a2.91,2.91,0,0,0-.523.141.761.761,0,0,0-.538.912c.083.483.466.519.838.465,1.1-.158,2.193-.343,3.29-.517.293-.047.7-.232.787.183.1.483-.392.414-.7.507-3.248,1-6.456.163-9.672-.214a1.718,1.718,0,0,1-1.153-.583C345.118,909.108,345.324,908.493,346.3,907.815Z" transform="translate(-113.715 -384.276)"/><path d="M287.061,852.688c.362,0,.725-.021,1.086,0,.577.041,1.048.033,1.145-.743.06-.48.548-.577.975-.594.516-.02,1.034,0,1.551-.005.681-.008,1.277.139,1.339.948.04.526.813.257.78.821-.029.487-.748.258-.743.77.008.931-.017,1.862,0,2.792.012.562-.262.7-.77.686s-.6-.3-.594-.714c.006-.827-.02-1.655.008-2.482.018-.516-.244-.583-.672-.587s-.608.135-.6.579c.021.853-.014,1.707.013,2.559.016.513-.223.7-.691.7-.446,0-.659-.208-.65-.668.007-.357.115-.813-.149-1.042-.377-.328-.99-.11-1.439-.449-.122-.092-.515.147-.538.435a.81.81,0,0,0,.471.82c.223.111.672,0,.548.453-.1.35-.448.381-.771.386a1.324,1.324,0,0,1-1.461-1.012c-.12-.443-.243-.841-.758-.969a.37.37,0,0,1-.261-.427c.018-.218.182-.3.374-.324.1-.015.205-.024.308-.037.342-.043.787.059.794-.5.007-.59-.429-.535-.823-.534-.3,0-.6-.033-.607-.426-.007-.458.342-.442.658-.444C286.079,852.687,286.57,852.689,287.061,852.688Zm1.235.842c-.175.081-.657-.231-.629.284.022.405.008.984.759.875.392-.057.778.033.773-.574C289.195,853.48,288.8,853.5,288.3,853.53Z" transform="translate(-62.701 -339.162)"/><path d="M503.2,855.006c0-.388-.015-.777,0-1.163.02-.411-.028-.7-.559-.7-.5,0-.8.11-.745.691.06.61-.275.826-.848.808-.646-.02-1.293-.006-1.94-.013-.519-.006-.849.176-.838.759.011.566.349.777.85.788.7.016,1.4,0,2.094.011.284,0,.637.014.622.407-.013.317-.327.374-.59.375-.931.005-1.865.043-2.792-.025a1.5,1.5,0,0,1-1.52-1.692c.048-.89.586-1.373,1.606-1.417.491-.021.983,0,1.474-.018.267-.007.557-.046.534-.406-.022-.338-.311-.281-.537-.282-.8,0-1.6,0-2.405-.006-.3,0-.7.026-.719-.4-.018-.483.4-.453.735-.456.75-.008,1.5-.021,2.25-.007.385.007.641-.071.688-.52.059-.568.444-.776.977-.776s1.086.008,1.629-.005c.705-.018,1.25.205,1.323.983.048.508.726.274.767.755.049.573-.727.306-.744.731-.037.929-.019,1.861-.025,2.792,0,.331.068.711-.423.769s-.888-.026-.869-.663c.013-.439,0-.879,0-1.319Z" transform="translate(-241.722 -338.833)"/><path d="M354.7,849.833c.042-.274-.129-.346-.206-.473a.844.844,0,0,1,.642-1.365,17.549,17.549,0,0,1,1.783-.016c.266,0,.669-.086.65.328-.017.372-.419.294-.686.33-.409.055-.864-.144-1.284.226.436.327.887.132,1.3.187.262.035.664-.1.685.3.024.463-.4.255-.645.3-.121.024-.246.034-.419.056.263.183.5.1.727.117.313.02.5.309.331.44-.373.3-.267.684-.37,1.03a.718.718,0,0,1-.759.536c-.646.008-1.293.006-1.939.03-.237.009-.527-.119-.7.185.171.3.457.185.7.192.543.016,1.086.007,1.629.007a1.012,1.012,0,0,1,1.109,1.039,1.067,1.067,0,0,1-1.064,1.1c-.463.034-.931.026-1.4.015-.414-.009-.757-.029-.766.574-.007.5-.477.353-.788.369s-.566-.084-.553-.474c0-.1,0-.207,0-.31-.018-1.2.2-1.373,1.355-1.031a3.453,3.453,0,0,0,1.382.082c.175-.019.4-.029.406-.269,0-.288-.242-.293-.448-.3q-.931-.012-1.862-.006a.927.927,0,0,1-1.072-.956c-.034-.647.343-1.017,1.067-1.043.62-.022,1.241,0,1.862-.01.19,0,.476.063.46-.25-.013-.255-.269-.186-.436-.187-.776-.007-1.552,0-2.328-.008-.3,0-.7.023-.685-.419.013-.4.389-.336.663-.34C353.6,849.827,354.16,849.833,354.7,849.833Z" transform="translate(-119.699 -336.308)"/><path d="M402.927,859.624a5.47,5.47,0,0,1,.775.007c.4.058.5.4.23.595-.459.333-.371.755-.377,1.18-.01.724-.019,1.449,0,2.173.011.41-.126.645-.556.663-.45.018-.673-.184-.656-.648.01-.258-.014-.517-.015-.776,0-.394-.275-.454-.577-.466-.338-.014-.362.221-.351.471a1.258,1.258,0,0,1-.978,1.4,2.608,2.608,0,0,1-2.441-.294c-.256-.214-.556-.574-.274-.856a.721.721,0,0,1,1.088.082.859.859,0,0,0,.78.4c.343-.031.607-.157.615-.554.008-.362-.231-.5-.539-.539-.282-.035-.569-.027-.851-.059a.368.368,0,1,1,.033-.736c.155-.007.312,0,.465-.015.357-.045.752-.048.855-.507a.442.442,0,0,0-.284-.565.78.78,0,0,0-1.032.252.744.744,0,0,1-.684.41c-.433,0-.644-.164-.5-.622.008-.025.013-.05.022-.074.254-.739,1.134-1.044,2.5-.861a1.27,1.27,0,0,1,1.218,1.273c.017.212-.105.5.237.569.177.037.384.06.5-.1a.813.813,0,0,0,.053-.816C401.744,859.6,401.731,859.608,402.927,859.624Z" transform="translate(-157.874 -346.143)"/><path d="M444.3,859.6c.983,0,1.967,0,2.95,0,.227,0,.489-.01.53.316s-.185.389-.42.451c-.075.02-.175.015-.222.062-.455.459.037,1.2-.544,1.677-.433.356-.188.842.584,1.3.145.085.259.175.249.353a.429.429,0,0,1-.319.392,1.346,1.346,0,0,1-1.77-.815c-.19-.523-.328-1.039-.965-1.192-.215-.052-.244-.257-.21-.444.042-.232.247-.219.425-.249.419-.071,1.1.161,1.068-.54-.039-.738-.741-.476-1.182-.481-1.689-.018-1.414-.164-1.438,1.441-.009.6-.018,1.191,0,1.785.015.453-.227.6-.62.6s-.719-.095-.713-.6c.01-.854,0-1.708,0-2.562,0-.333-.018-.621-.442-.685a.4.4,0,0,1-.372-.493c.048-.318.3-.311.535-.312.958,0,1.915,0,2.873,0Z" transform="translate(-194.432 -346.132)"/><path d="M429.8,910c0-.594.045-1.192-.011-1.781-.062-.645.212-.8.793-.762s1.188,0,1.781.015a1.466,1.466,0,0,1,1.545.933,1.316,1.316,0,0,1-.549,1.627c-.339.225-.242.46-.074.719.309.476.621.951.926,1.429.208.326.163.482-.273.537a1.382,1.382,0,0,1-1.541-.858c-.23-.428-.413-1.236-.894-1.114-.536.136-.228.909-.215,1.383.019.7-.423.55-.812.586-.466.043-.725-.065-.688-.623C429.832,911.395,429.8,910.7,429.8,910Zm1.452-1.012c.115.333-.248.91.513.87a.77.77,0,0,0,.819-.828.814.814,0,0,0-.882-.868C430.984,908.125,431.386,908.7,431.249,908.986Z" transform="translate(-185.049 -386.536)"/><path d="M274.956,911.123c0,.919,0,1.637,0,2.355,0,.288.027.568-.415.58-.466.012-.478-.254-.475-.594.008-1.239-.005-2.479.013-3.717,0-.251-.162-.618.225-.724a.892.892,0,0,1,.925.25q1.039,1.1,2.092,2.178a.541.541,0,0,0,.495.236c0-.7,0-1.4,0-2.111,0-.279-.056-.582.4-.576s.387.313.388.589c0,1.239.011,2.479-.006,3.717,0,.249.18.614-.228.72a.824.824,0,0,1-.838-.279c-.7-.755-1.415-1.5-2.127-2.251C275.32,911.409,275.217,911.34,274.956,911.123Z" transform="translate(-53.551 -387.833)"/><path d="M213.586,860.647h1.859c.362,0,.747.207.508.523-.471.624-.25,1.283-.321,1.926a1.783,1.783,0,0,1-.067.457.715.715,0,0,1-.827.419c-.4-.033-.4-.322-.4-.619,0-.361-.021-.725.007-1.084.043-.551-.066-.857-.741-.846-.633.01-.839.252-.781.829.005.051,0,.1,0,.155.018.618-.164,1.351.107,1.823.327.568,1.14.139,1.728.261.126.026.257.034.382.065a.653.653,0,0,1,.541.87.555.555,0,0,1-.856.213c-.6-.494-1.264-.331-1.914-.356-.9-.035-1.189-.324-1.2-1.229,0-.62,0-1.239,0-1.859,0-.281.046-.568-.253-.76a.394.394,0,0,1-.163-.538c.106-.224.315-.246.526-.247C212.346,860.645,212.966,860.647,213.586,860.647Z" transform="translate(-0.445 -347.016)"/><path d="M246.376,861.259c-.336,0-.672,0-1.007,0-.253-.006-.476-.085-.479-.385a.4.4,0,0,1,.431-.439q2.014-.005,4.028,0c.214,0,.413.063.457.325a.371.371,0,0,1-.312.459c-.466.092-.439.42-.435.768q.013,1.084,0,2.169c-.005.424.111.91-.608.905-.681,0-.545-.464-.562-.859-.006-.129,0-.258,0-.387,0-.294-.017-.591-.4-.634-.322-.035-.633-.021-.765.356-.106.305-.25.583-.6.635a.868.868,0,0,1-1.118-.683.838.838,0,0,1,.717-1.088,7.834,7.834,0,0,1,1.312-.048c.38-.009.819.086.831-.521.012-.648-.447-.569-.859-.57Z" transform="translate(-28.932 -346.832)"/><path d="M253.447,452.339c.49,0,1.067-.164,1.45.038.567.3-.172.79-.049,1.269a7.08,7.08,0,0,1,.03,1.7.431.431,0,0,1-.228.453c-.129.059-.324.04-.348-.062-.144-.631-.634-.358-1-.41a.984.984,0,0,1-.929-1.049.961.961,0,0,1,.907-1.06c.182-.026.382-.05.476.149.1.222-.056.327-.239.4-.292.117-.493.29-.376.643a.451.451,0,0,0,.554.308c.409-.066.409-.388.421-.711.037-1.056.042-1.055-1.029-1.058-1.327,0-1.327,0-1.328,1.392,0,.336,0,.671,0,1.007,0,.252-.042.5-.336.515-.337.013-.406-.251-.405-.535,0-.517,0-1.033,0-1.549a1.957,1.957,0,0,0-.2-.956c-.279-.528.2-.992.361-1.467.136-.411.622-.414,1.016-.292s.775.281,1.155.439c.164.069.363.171.246.4-.086.167-.261.109-.413.058-.269-.089-.538-.182-.811-.255-.2-.052-.426-.13-.562.087a.438.438,0,0,0,.015.362c.108.215.318.211.538.2C252.724,452.325,253.086,452.34,253.447,452.339Z" transform="translate(-33.866 -1.105)"/><path d="M312.706,913.075c-2.472-.057-3.695-1.5-3.2-3.479.463-1.847,2.892-2.207,4.334-1.713a.3.3,0,0,1,.222.286.683.683,0,0,1-.114.516c-.169.19-.328.032-.487-.033-1.52-.624-2.609.123-2.587,1.775a1.779,1.779,0,0,0,2.491,1.844c.2-.059.517-.375.629.056a.522.522,0,0,1-.494.656C313.171,913.033,312.837,913.061,312.706,913.075Z" transform="translate(-83.403 -386.733)"/><path d="M464.573,907.153c.518,0,1.036,0,1.553,0,.3,0,.558,0,.562.434,0,.4-.185.516-.521.455-.885-.161-1.025.3-.974,1.046.057.85,0,1.708.022,2.561.012.466-.017.753-.639.759-.657.007-.7-.293-.682-.8.028-.957-.014-1.916.022-2.872.021-.543-.169-.738-.709-.7-.312.022-.78.192-.753-.446.026-.616.483-.409.8-.429C463.692,907.133,464.133,907.153,464.573,907.153Z" transform="translate(-212.641 -386.276)"/><path d="M282.676,459.769c-.14-.058-.207-.088-.276-.114-.208-.076-.543-.054-.525-.349.021-.34.36-.31.61-.314.7-.011,1.392-.016,2.088,0,.426.008.781-.019.449.655a4.947,4.947,0,0,0-.1,2.06c-.013.534.044,1.06-.778.664-.172-.083-.446.047-.673.075-.956.116-1.412-.43-1.182-1.361C282.4,460.643,282.1,460.109,282.676,459.769Zm.393.743c.094.28.617.065.585.471-.025.319-.335.254-.534.335-.118.048-.247.1-.231.261s.14.212.262.243c.5.13.881-.009,1-.544a2.71,2.71,0,0,0,.025-.844c-.026-.258.138-.627-.225-.739s-.344.3-.492.477C283.347,460.306,283.1,460.274,283.069,460.512Z" transform="translate(-60.161 -7.854)"/><path d="M307.638,458.816h.776c.535,0,.9-.047.538.758a5.942,5.942,0,0,0-.1,2.069c-.008.244.108.563-.208.683-.3.114-.371-.158-.481-.369-.161-.306-.417-.067-.624-.059a1.164,1.164,0,0,1-1.354-.888c-.092-.36-.135-.729.339-.9.175-.062.335-.163.3-.392s-.252-.227-.417-.27-.405-.048-.394-.283c.012-.252.252-.322.458-.334.387-.022.776-.006,1.164-.006Zm.5,1.521a1.353,1.353,0,0,0,.009-.231c-.027-.214.065-.521-.267-.546-.3-.023-.25.265-.294.452a1,1,0,0,1-.373.568c-.155.122-.389.227-.2.483a.543.543,0,0,0,.622.193C308.116,461.124,308.155,460.742,308.141,460.336Z" transform="translate(-80.547 -7.713)"/><path d="M398.428,458.654h.543c.947,0,.9-.008.741.923a16.356,16.356,0,0,0-.05,1.7c-.022.327.08.851-.4.843-.434-.007-.327-.5-.355-.822-.026-.293.109-.665-.3-.787a.661.661,0,0,0-.829.236.553.553,0,0,0,.215.8c.2.121.487.2.289.5-.178.267-.46.178-.7.065a1.129,1.129,0,0,1-.622-1.361.935.935,0,0,1,1.015-.864,3.253,3.253,0,0,0,.388,0c.23-.025.521-.04.5-.349-.015-.263-.283-.248-.49-.253l-1.008-.023c-.243-.005-.514-.026-.5-.34.012-.27.275-.26.481-.263.362,0,.724,0,1.087,0Z" transform="translate(-157.254 -7.577)"/><path d="M481.168,460.229a.992.992,0,0,1,.9-1.075,5.064,5.064,0,0,1,.617-.046c.188-.014.383-.052.389-.283.007-.286-.22-.312-.434-.316-.413-.008-.825,0-1.238-.011-.16,0-.327-.047-.341-.239a.317.317,0,0,1,.322-.361q1.236-.018,2.473.006c.2,0,.389.165.285.358-.433.808-.131,1.668-.222,2.5-.029.265.063.645-.339.667-.463.026-.358-.384-.427-.671-.086-.358.313-.951-.446-1.009-.324-.025-.638.009-.768.37a.6.6,0,0,0,.292.726c.152.112.46.157.327.427-.142.289-.449.224-.686.133A1.108,1.108,0,0,1,481.168,460.229Z" transform="translate(-228.35 -6.933)"/><path d="M421.457,458.187c.18,0,.362-.013.541,0,.3.026.652-.1.892.131.294.286-.153.487-.152.755q0,.966-.009,1.932c0,.3.064.687-.39.7s-.408-.355-.432-.67c-.02-.262.159-.612-.186-.76a.548.548,0,0,0-.765.3c-.156.284-.424.157-.574-.036-.2-.257-.64-.49-.282-.9.282-.325.266-.54-.053-.839-.345-.325-.161-.564.251-.6C420.682,458.16,421.071,458.188,421.457,458.187Zm0,1.348c.21-.008.424-.021.445-.3s-.144-.361-.383-.349c-.219.011-.5-.04-.486.313C421.045,459.453,421.228,459.536,421.46,459.535Z" transform="translate(-176.681 -7.175)"/><path d="M376.735,458.442c.077,0,.155,0,.233,0,.359.02.785-.073,1.06.089.431.256-.11.615-.066.97a14.013,14.013,0,0,1,.019,1.781c0,.318-.023.7-.42.7-.372,0-.337-.371-.354-.658s.135-.672-.23-.832-.613.026-.8.374c-.1.185-.344.123-.463-.036-.2-.268-.627-.48-.356-.913.183-.291.276-.544.026-.838-.427-.5-.081-.609.347-.637C376.061,458.425,376.4,458.442,376.735,458.442Zm.439.958c-.044-.269-.244-.324-.5-.318a.32.32,0,0,0-.359.376c.013.321.242.345.481.332S377.189,459.684,377.173,459.4Z" transform="translate(-138.952 -7.392)"/><path d="M460.9,458.215c.181,0,.362,0,.543,0,.6-.01,1.186-.12.708.877-.232.485-.019,1.172-.06,1.764-.021.31.231.842-.343.852-.481.008-.322-.489-.383-.792-.048-.237.059-.556-.279-.652-.225-.064-.48-.078-.617.176s-.314.453-.6.215c-.25-.211-.563-.442-.49-.82.067-.344.4-.248.649-.261.31-.016.621,0,.931-.018a.31.31,0,0,0,.335-.341.323.323,0,0,0-.332-.351c-.413-.019-.828,0-1.241-.025-.218-.011-.428-.11-.4-.369.021-.222.232-.251.417-.254C460.128,458.21,460.516,458.214,460.9,458.215Z" transform="translate(-209.996 -7.2)"/><path d="M443.916,459.023c-.012.161.133.2.219.291a.938.938,0,0,1-.125,1.608c-.139.1-.365.14-.255.388.085.194.221.388-.09.494a.523.523,0,0,1-.565-.161c-.245-.259-.557-.512-.485-.92.069-.387.447-.264.7-.345.17-.055.387-.071.37-.312s-.229-.282-.405-.267c-.953.082-.456-.918-.911-1.24-.113-.08.213-.3.423-.3.465-.013.93-.013,1.394,0,.221.005.527-.049.552.273s-.253.336-.493.354C444.12,458.892,443.986,458.885,443.916,459.023Z" transform="translate(-195.661 -7.235)"/><path d="M350.673,463.081a2.081,2.081,0,0,1-.436-.035c-.3-.1-.81-.067-.727-.509.087-.467.5-.12.768-.1.333.019.735.118.889-.263.182-.449-.267-.536-.542-.7-.156-.091-.324-.16-.482-.248a.909.909,0,0,1-.521-1.025.867.867,0,0,1,.882-.725,4,4,0,0,1,.769.032c.187.021.37.1.344.334s-.225.236-.407.268c-.28.05-.722-.165-.793.25s.4.488.682.619c.561.259,1.018.582.849,1.281C351.784,462.938,351.227,463.067,350.673,463.081Z" transform="translate(-117.265 -8.265)"/><path d="M328.36,458.774c.533.028.782.089.478.737s-.056,1.417-.108,2.131c-.018.255.129.651-.305.66-.407.008-.33-.374-.363-.642-.1-.821.19-1.659-.274-2.483C327.566,458.782,328.109,458.82,328.36,458.774Z" transform="translate(-98.887 -7.679)"/><path d="M468.785,483.9a2.309,2.309,0,0,1-.409-.062.286.286,0,0,1-.208-.294.235.235,0,0,1,.269-.22c.427.036.6-.049.557-.565-.022-.265.413-.228.649-.111a.552.552,0,0,1,.286.834C469.707,483.879,469.306,483.889,468.785,483.9Z" transform="translate(-217.465 -27.758)"/><path d="M386.955,484.023c-.434-.067-.725-.257-.718-.69a.6.6,0,0,1,.642-.624c.72.026.045.744.449,1.022C387.461,483.823,387.11,483.976,386.955,484.023Z" transform="translate(-148.284 -27.888)"/><path d="M491.43,450.5c-.044.219-.2.3-.348.241a1.332,1.332,0,0,1-.814-.867c-.065-.2.192-.2.331-.18C491.071,449.763,491.225,450.168,491.43,450.5Z" transform="translate(-236.118)"/><path d="M363.545,597.81c-.376-.061-.647-.246-.666-.635a.6.6,0,0,1,.628-.709.591.591,0,0,1,.657.6C364.2,597.505,363.925,597.711,363.545,597.81Z" transform="translate(-128.561 -123.944)"/><path d="M439.223,686.868a.6.6,0,0,1,.6.62.613.613,0,0,1-.61.659.641.641,0,0,1-.682-.672C438.527,687.089,438.808,686.9,439.223,686.868Z" transform="translate(-192.442 -200.279)"/><path d="M322.826,705.627c.428.079.689.288.685.716a.576.576,0,0,1-.612.635.618.618,0,0,1-.694-.645C322.188,705.887,322.47,705.711,322.826,705.627Z" transform="translate(-94.216 -216.119)"/></g></svg>