<?xml version="1.0" encoding="utf-8"?>
<!-- Generator: Adobe Illustrator 25.2.1, SVG Export Plug-In . SVG Version: 6.00 Build 0)  -->
<svg version="1.1" id="Layer_1" xmlns="http://www.w3.org/2000/svg" xmlns:xlink="http://www.w3.org/1999/xlink" x="0px" y="0px"
   viewBox="0 0 280 72.9" style="enable-background:new 0 0 280 72.9;" xml:space="preserve">
<style type="text/css">
  .st0{enable-background:new    ;}
  .st1{fill:#FCB316;}
</style>
<g id="Group_651" transform="translate(-388.002 -48.999)">
  <g class="st0">
    <path d="M473.9,87h-1.6l-6.6-8.8V87h-2.8V73h1.6l6.6,8.8V73h2.8V87z"/>
    <path d="M487,87h-1.7l-0.1-1.4c-0.8,1-1.9,1.5-3.3,1.5s-2.6-0.5-3.5-1.5c-0.9-1-1.4-2.2-1.4-3.6s0.5-2.7,1.4-3.7
      c0.9-1,2.1-1.5,3.5-1.5s2.5,0.5,3.3,1.6l0.1-1.4h1.7V87z M482,84.7c0.7,0,1.3-0.2,1.8-0.7s0.8-1.1,0.8-1.9c0-0.8-0.3-1.4-0.8-1.9
      s-1.1-0.8-1.8-0.8c-0.7,0-1.3,0.3-1.8,0.8c-0.5,0.5-0.8,1.1-0.8,1.9c0,0.8,0.3,1.4,0.8,1.9S481.3,84.7,482,84.7z"/>
    <path d="M493.6,79.5V87h-2.6v-7.5h-1.3V77h1.3v-3.4h2.6V77h1.3v2.5H493.6z"/>
    <path d="M499.1,76.1c-0.4,0-0.8-0.1-1-0.4c-0.3-0.3-0.4-0.6-0.4-0.9s0.1-0.7,0.4-0.9c0.3-0.3,0.6-0.4,1-0.4c0.4,0,0.8,0.1,1.1,0.4
      c0.3,0.3,0.4,0.6,0.4,0.9s-0.1,0.7-0.4,0.9C499.9,76,499.6,76.1,499.1,76.1z M497.9,87V77h2.5v10H497.9z"/>
    <path d="M508.6,76.9c1.4,0,2.6,0.5,3.6,1.5s1.5,2.2,1.5,3.6s-0.5,2.6-1.5,3.6s-2.2,1.5-3.6,1.5c-1.4,0-2.6-0.5-3.6-1.5
      s-1.5-2.2-1.5-3.6c0-1.4,0.5-2.6,1.5-3.6S507.1,76.9,508.6,76.9z M510.4,80.1c-0.5-0.5-1.1-0.8-1.8-0.8c-0.7,0-1.3,0.3-1.8,0.8
      c-0.5,0.5-0.8,1.1-0.8,1.9c0,0.8,0.3,1.4,0.8,1.9s1.1,0.7,1.8,0.7c0.7,0,1.3-0.2,1.8-0.7s0.8-1.1,0.8-1.9
      C511.1,81.2,510.9,80.6,510.4,80.1z"/>
    <path d="M521.8,76.9c1.4,0,2.5,0.4,3.2,1.3s1.1,2.1,1.1,3.5V87h-2.5v-5.1c0-1.7-0.7-2.6-2.2-2.6c-0.8,0-1.3,0.2-1.8,0.7
      s-0.6,1.2-0.6,2.1V87h-2.5V77h1.7l0.2,1.6C519.1,77.4,520.2,76.9,521.8,76.9z"/>
    <path d="M538.9,87h-1.7l-0.1-1.4c-0.8,1-1.9,1.5-3.3,1.5c-1.4,0-2.6-0.5-3.5-1.5c-0.9-1-1.4-2.2-1.4-3.6s0.5-2.7,1.4-3.7
      c0.9-1,2.1-1.5,3.5-1.5c1.4,0,2.5,0.5,3.3,1.6l0.1-1.4h1.7V87z M534,84.7c0.7,0,1.3-0.2,1.8-0.7c0.5-0.5,0.8-1.1,0.8-1.9
      c0-0.8-0.3-1.4-0.8-1.9c-0.5-0.5-1.1-0.8-1.8-0.8s-1.3,0.3-1.8,0.8c-0.5,0.5-0.8,1.1-0.8,1.9c0,0.8,0.3,1.4,0.8,1.9
      S533.3,84.7,534,84.7z"/>
    <path d="M542.5,87V73h2.6v14H542.5z"/>
    <path d="M561.7,72.9c2.1,0,3.8,0.8,5.3,2.3l-1.8,1.7c-0.9-0.9-2.1-1.4-3.5-1.4c-1.2,0-2.3,0.4-3.1,1.3s-1.3,1.9-1.3,3.3
      c0,1.3,0.4,2.4,1.3,3.3c0.8,0.8,1.9,1.3,3.1,1.3c1.4,0,2.6-0.5,3.5-1.4l1.8,1.7c-1.4,1.5-3.2,2.3-5.3,2.3c-2,0-3.7-0.7-5-2.1
      c-1.4-1.4-2.1-3.1-2.1-5c0-2,0.7-3.7,2.1-5S559.7,72.9,561.7,72.9z"/>
    <path d="M579.3,87h-1.7l-0.2-1.6c-0.7,1.1-1.8,1.7-3.4,1.7c-1.4,0-2.5-0.4-3.3-1.3s-1.1-2.1-1.1-3.5V77h2.5v5.1
      c0,1.7,0.7,2.6,2.2,2.6c0.7,0,1.3-0.2,1.7-0.7c0.4-0.5,0.6-1.2,0.6-2.1V77h2.5V87z"/>
    <path d="M589,79.3h-1c-0.9,0-1.6,0.3-2.1,0.8c-0.5,0.6-0.7,1.3-0.7,2.3V87h-2.5V77h1.7l0.3,2.2c0.8-1.5,2.1-2.3,4-2.3h0.4V79.3z"
      />
    <path d="M597.7,79.3h-1c-0.9,0-1.6,0.3-2.1,0.8c-0.5,0.6-0.7,1.3-0.7,2.3V87h-2.5V77h1.7l0.3,2.2c0.8-1.5,2.1-2.3,4-2.3h0.4V79.3z
      "/>
    <path d="M601.6,76.1c-0.4,0-0.8-0.1-1-0.4c-0.3-0.3-0.4-0.6-0.4-0.9s0.1-0.7,0.4-0.9c0.3-0.3,0.6-0.4,1-0.4c0.4,0,0.8,0.1,1.1,0.4
      c0.3,0.3,0.4,0.6,0.4,0.9s-0.1,0.7-0.4,0.9C602.4,76,602,76.1,601.6,76.1z M600.4,87V77h2.5v10H600.4z"/>
    <path d="M611,76.9c1.6,0,2.9,0.6,3.9,1.8l-1.5,1.6c-0.7-0.7-1.5-1-2.4-1c-0.7,0-1.3,0.2-1.8,0.7s-0.8,1.1-0.8,1.9
      c0,0.8,0.3,1.4,0.8,1.9s1.1,0.7,1.8,0.7c0.9,0,1.7-0.3,2.4-1l1.5,1.6c-1,1.2-2.3,1.8-3.9,1.8c-1.4,0-2.6-0.5-3.6-1.5
      s-1.5-2.2-1.5-3.6s0.5-2.6,1.5-3.6S609.6,76.9,611,76.9z"/>
    <path d="M627.3,87h-1.7l-0.2-1.6c-0.7,1.1-1.8,1.7-3.4,1.7c-1.4,0-2.5-0.4-3.3-1.3s-1.1-2.1-1.1-3.5V77h2.5v5.1
      c0,1.7,0.7,2.6,2.2,2.6c0.7,0,1.3-0.2,1.7-0.7c0.4-0.5,0.6-1.2,0.6-2.1V77h2.5V87z"/>
    <path d="M630.7,87V73h2.6v14H630.7z"/>
    <path d="M646.2,87h-1.7l-0.2-1.6c-0.7,1.1-1.8,1.7-3.4,1.7c-1.4,0-2.5-0.4-3.3-1.3s-1.1-2.1-1.1-3.5V77h2.5v5.1
      c0,1.7,0.7,2.6,2.2,2.6c0.7,0,1.3-0.2,1.7-0.7c0.4-0.5,0.6-1.2,0.6-2.1V77h2.5V87z"/>
    <path d="M661.9,76.9c1.4,0,2.5,0.4,3.2,1.3c0.7,0.9,1.1,2.1,1.1,3.5V87h-2.5v-5.1c0-1.7-0.7-2.6-2.2-2.6c-0.8,0-1.3,0.2-1.8,0.7
      s-0.6,1.2-0.6,2.1V87h-2.5v-5.1c0-1.7-0.7-2.6-2.2-2.6c-0.8,0-1.3,0.2-1.8,0.7s-0.6,1.2-0.6,2.1V87h-2.5V77h1.7l0.2,1.6
      c0.7-1.1,1.8-1.7,3.4-1.7c1.7,0,2.9,0.6,3.6,1.9c0.3-0.6,0.8-1.1,1.4-1.4S661.1,76.9,661.9,76.9z"/>
  </g>
  <g class="st0">
    <path d="M465.9,99.7h6.1v2.6h-6.1v5.7h-2.8V94h9.3v2.6h-6.6V99.7z"/>
    <path d="M481.4,100.3h-1c-0.9,0-1.6,0.3-2.1,0.8c-0.5,0.6-0.7,1.3-0.7,2.3v4.5H475V98h1.7l0.3,2.2c0.8-1.5,2.1-2.3,4-2.3h0.4
      V100.3z"/>
    <path d="M493.2,108h-1.7l-0.1-1.4c-0.8,1-1.9,1.5-3.3,1.5s-2.6-0.5-3.5-1.5c-0.9-1-1.4-2.2-1.4-3.6s0.5-2.7,1.4-3.7
      c0.9-1,2.1-1.5,3.5-1.5s2.5,0.5,3.3,1.6l0.1-1.4h1.7V108z M488.3,105.7c0.7,0,1.3-0.2,1.8-0.7s0.8-1.1,0.8-1.9
      c0-0.8-0.3-1.4-0.8-1.9s-1.1-0.8-1.8-0.8c-0.7,0-1.3,0.3-1.8,0.8c-0.5,0.5-0.8,1.1-0.8,1.9c0,0.8,0.3,1.4,0.8,1.9
      S487.6,105.7,488.3,105.7z"/>
    <path d="M509.1,97.9c1.4,0,2.5,0.4,3.2,1.3s1.1,2.1,1.1,3.5v5.3h-2.5v-5.1c0-1.7-0.7-2.6-2.2-2.6c-0.8,0-1.3,0.2-1.8,0.7
      c-0.4,0.5-0.6,1.2-0.6,2.1v4.9h-2.5v-5.1c0-1.7-0.7-2.6-2.2-2.6c-0.8,0-1.3,0.2-1.8,0.7s-0.6,1.2-0.6,2.1v4.9h-2.5V98h1.7l0.2,1.6
      c0.7-1.1,1.8-1.7,3.4-1.7c1.7,0,2.9,0.6,3.6,1.9c0.3-0.6,0.8-1.1,1.4-1.4C507.5,98,508.3,97.9,509.1,97.9z"/>
    <path d="M521.2,97.9c2.1,0,3.6,0.9,4.4,2.7c0.2,0.4,0.3,1,0.3,1.6c0,0.6,0,1.1-0.2,1.5h-7c0,0.7,0.2,1.2,0.7,1.5
      c0.5,0.4,1.1,0.6,1.8,0.6c1.1,0,2.1-0.2,3-0.7l1.3,1.5c-1.4,1-2.9,1.6-4.4,1.6c-1.5,0-2.7-0.5-3.7-1.5s-1.4-2.2-1.4-3.7
      c0-1.5,0.5-2.7,1.4-3.7C518.5,98.3,519.7,97.9,521.2,97.9z M521.2,100.2c-0.7,0-1.2,0.2-1.6,0.6c-0.4,0.4-0.7,0.8-0.7,1.3h4.6
      c0-0.3-0.1-0.6-0.2-0.8C522.8,100.6,522.1,100.2,521.2,100.2z"/>
    <path d="M540.6,108h-1.6l-2.7-5.9l-2.7,5.9h-1.6l-4.5-10h2.7l2.7,6.3l2.7-6.3h1.6l2.7,6.3l2.7-6.3h2.7L540.6,108z"/>
    <path d="M551.7,97.9c1.4,0,2.6,0.5,3.6,1.5s1.5,2.2,1.5,3.6s-0.5,2.6-1.5,3.6s-2.2,1.5-3.6,1.5s-2.6-0.5-3.6-1.5s-1.5-2.2-1.5-3.6
      c0-1.4,0.5-2.6,1.5-3.6S550.3,97.9,551.7,97.9z M553.5,101.1c-0.5-0.5-1.1-0.8-1.8-0.8s-1.3,0.3-1.8,0.8c-0.5,0.5-0.8,1.1-0.8,1.9
      c0,0.8,0.3,1.4,0.8,1.9s1.1,0.7,1.8,0.7c0.7,0,1.3-0.2,1.8-0.7c0.5-0.5,0.8-1.1,0.8-1.9C554.3,102.2,554,101.6,553.5,101.1z"/>
    <path d="M566,100.3h-1c-0.9,0-1.6,0.3-2.1,0.8c-0.5,0.6-0.7,1.3-0.7,2.3v4.5h-2.5V98h1.7l0.3,2.2c0.8-1.5,2.1-2.3,4-2.3h0.4V100.3
      z"/>
    <path d="M575.3,108l-1.7-2.7c-0.3-0.5-0.6-0.8-0.8-1c-0.2-0.2-0.6-0.3-1-0.3H571v3.9h-2.5V94h2.5v7.6h0.6c0.5,0,0.8-0.1,1-0.3
      c0.2-0.2,0.5-0.5,0.8-1L575,98h2.8l-2.2,3.4c-0.5,0.8-1,1.3-1.4,1.5c0.5,0.1,1,0.6,1.5,1.5l2.4,3.7H575.3z"/>
  </g>
  <g id="Group_10" transform="translate(388 49)">
    <path id="Path_336" class="st1" d="M25.2,42.1L0,28.1v9.7c0,1.9,1,3.6,2.7,4.5l25.2,14v-9.7C27.8,44.7,26.8,43,25.2,42.1z"/>
    <path id="Path_337" class="st1" d="M25.2,58.7L0,44.7v9.7c0,1.9,1,3.6,2.7,4.5l25.2,14v-9.7C27.8,61.3,26.8,59.6,25.2,58.7z"/>
    <path id="Path_338" class="st1" d="M33.4,42.1c-1.6,0.9-2.7,2.6-2.7,4.5v9.7l25.2-14c1.6-0.9,2.7-2.6,2.7-4.5v-9.7L33.4,42.1z"/>
    <path id="Path_339" class="st1" d="M30.7,63.2v9.7l25.2-14c1.6-0.9,2.7-2.6,2.7-4.5v-9.7l-25.2,14C31.7,59.6,30.7,61.3,30.7,63.2z
      "/>
    <circle id="Ellipse_4" class="st1" cx="29.3" cy="25.4" r="10.4"/>
    <path id="Path_340" class="st1" d="M29.3,9.5c0.4,0,0.8-0.4,0.8-0.8V0.8c0-0.4-0.4-0.8-0.8-0.8c-0.4,0-0.8,0.4-0.8,0.8l0,0v7.9
      C28.5,9.2,28.8,9.5,29.3,9.5L29.3,9.5z"/>
    <path id="Path_341" class="st1" d="M20.2,11.4c0.2,0.4,0.7,0.6,1.1,0.4s0.6-0.7,0.4-1.1c0,0,0-0.1-0.1-0.1l-4-6.9
      c-0.3-0.4-0.8-0.4-1.1-0.2c-0.3,0.2-0.4,0.6-0.3,1L20.2,11.4z"/>
    <path id="Path_342" class="st1" d="M7.5,13.8l6.9,4c0.4,0.2,0.9,0,1.1-0.4c0.1-0.3,0-0.7-0.3-1l-6.9-4c-0.4-0.2-0.9,0-1.1,0.4
      C7.1,13.2,7.2,13.6,7.5,13.8L7.5,13.8z"/>
    <path id="Path_343" class="st1" d="M43.7,17.9c0.1,0,0.3,0,0.4-0.1l6.9-4c0.4-0.2,0.6-0.6,0.4-1.1c-0.2-0.4-0.6-0.6-1.1-0.4
      c-0.1,0-0.1,0.1-0.2,0.1l-6.9,4c-0.4,0.2-0.5,0.7-0.3,1.1C43.2,17.7,43.5,17.9,43.7,17.9L43.7,17.9z"/>
    <path id="Path_344" class="st1" d="M37.2,11.7c0.4,0.2,0.9,0.1,1.1-0.3c0,0,0,0,0,0l4-6.9c0.2-0.4,0-0.9-0.4-1.1
      c-0.3-0.2-0.8-0.1-1,0.3l-4,6.9C36.7,11,36.8,11.4,37.2,11.7L37.2,11.7z"/>
  </g>
</g>
</svg>
